<?xml version="1.0" encoding="iso-8859-1"?>
<!-- Generator: Adobe Illustrator 19.0.0, SVG Export Plug-In . SVG Version: 6.00 Build 0)  -->
<svg version="1.1" id="Layer_1" xmlns="http://www.w3.org/2000/svg" xmlns:xlink="http://www.w3.org/1999/xlink" x="0px" y="0px"
	 viewBox="0 0 295.996 295.996" style="enable-background:new 0 0 295.996 295.996;" xml:space="preserve">
<g>
	<path style="fill:#FFCE00;" d="M270.996,123.998c0-11.334-1.363-22.348-3.907-32.899c-7.269-15.153-17.35-28.709-29.558-39.997
		c-22.391-13.376-48.766-20.666-76.771-19.645C83.492,34.273,23.139,99.196,25.955,176.463c0.412,11.304,2.17,22.239,5.087,32.673
		c6.303,12.01,14.397,22.938,23.934,32.42c21.892,14.189,47.99,22.44,76.022,22.44C208.316,263.996,270.996,201.316,270.996,123.998
		z M197.497,98.998c8.836,0,16,7.164,16,16s-7.164,16-16,16s-16-7.164-16-16S188.661,98.998,197.497,98.998z M98.497,98.998
		c8.836,0,16,7.164,16,16s-7.164,16-16,16s-16-7.164-16-16S89.661,98.998,98.497,98.998z M79.318,221.697
		c-29.987-17.699-30.321-41.366-30.321-41.366s6.305,3.564,15.345,3.564c1.063,0,2.163-0.049,3.296-0.159
		c7.424-0.722,16.209-5.793,23.68-11.108c8.398-5.976,16.998-9.242,25.296-9.242c0.072,0,0.05,0.005,0.05,0.005v-0.394v0.394
		c8,0.053,15.297,2.977,21.558,9.237c5.332,5.332,8.656,12.13,9.692,19.146c1.035-7.017,4.318-13.814,9.65-19.146
		c6.319-6.319,13.776-9.242,21.629-9.242c8.299,0,17.075,3.267,25.473,9.242c7.471,5.315,16.261,10.387,23.685,11.108
		c1.133,0.11,2.236,0.159,3.298,0.159c9.04,0,15.346-3.564,15.346-3.564s-0.333,23.667-30.321,41.366
		c-9.888,5.692-20.412,8.757-30.426,8.757c-10.568,0-20.57-3.415-28.643-10.757c-5.435-4.942-8.595-11.376-9.608-18.149
		c-1.014,6.773-4.174,13.207-9.608,18.149c-8.073,7.342-18.075,10.757-28.644,10.757C99.73,230.454,89.206,227.39,79.318,221.697z"
		/>
	<path style="fill:#FFB100;" d="M267.089,91.099c2.544,10.552,3.907,21.565,3.907,32.899c0,77.318-62.68,139.998-139.998,139.998
		c-28.032,0-54.131-8.251-76.022-22.44c23.88,23.744,56.767,38.44,93.022,38.44c72.784,0,131.998-59.214,131.998-131.998
		C279.996,127.636,275.358,108.337,267.089,91.099z"/>
	<path style="fill:#FFE454;" d="M160.76,31.457c28.006-1.021,54.381,6.269,76.771,19.645C213.985,29.328,182.521,16,147.998,16
		C75.214,16,16,75.214,16,147.998c0,22.05,5.442,42.849,15.042,61.138c-2.917-10.434-4.675-21.369-5.087-32.673
		C23.139,99.196,83.492,34.273,160.76,31.457z"/>
	<path d="M147.998,0C66.392,0,0,66.392,0,147.998s66.392,147.998,147.998,147.998s147.998-66.392,147.998-147.998
		S229.605,0,147.998,0z M147.998,279.996c-36.256,0-69.143-14.696-93.022-38.44c-9.536-9.482-17.631-20.41-23.934-32.42
		C21.442,190.847,16,170.048,16,147.998C16,75.214,75.214,16,147.998,16c34.523,0,65.987,13.328,89.533,35.102
		c12.208,11.288,22.289,24.844,29.558,39.997c8.27,17.238,12.907,36.537,12.907,56.899
		C279.996,220.782,220.782,279.996,147.998,279.996z"/>
	<circle cx="98.497" cy="114.998" r="16"/>
	<circle cx="197.497" cy="114.998" r="16"/>
	<path d="M147.997,201.548c1.014,6.773,4.174,13.207,9.608,18.149c8.073,7.342,18.075,10.757,28.644,10.757
		c10.015,0,20.539-3.064,30.427-8.757c29.987-17.699,30.321-41.366,30.321-41.366s-6.305,3.564-15.345,3.564
		c-1.063,0-2.163-0.049-3.296-0.159c-7.424-0.722-16.209-5.793-23.68-11.108c-8.398-5.976-17.164-9.242-25.463-9.242
		c-7.854,0-15.289,2.923-21.608,9.242c-5.332,5.332-8.573,12.13-9.608,19.146c-1.035-7.017-4.276-13.814-9.608-19.146
		c-6.261-6.261-13.618-9.185-21.392-9.237c-0.072,0-0.145-0.005-0.217-0.005c-8.299,0-17.064,3.267-25.463,9.242
		c-7.471,5.315-16.256,10.387-23.68,11.108c-1.133,0.11-2.233,0.159-3.296,0.159c-9.04,0-15.345-3.564-15.345-3.564
		s0.334,23.667,30.321,41.366c9.888,5.692,20.412,8.757,30.427,8.757c10.568,0,20.57-3.415,28.644-10.757
		C143.823,214.755,146.983,208.321,147.997,201.548z"/>
</g>
<g>
</g>
<g>
</g>
<g>
</g>
<g>
</g>
<g>
</g>
<g>
</g>
<g>
</g>
<g>
</g>
<g>
</g>
<g>
</g>
<g>
</g>
<g>
</g>
<g>
</g>
<g>
</g>
<g>
</g>
</svg>
